# xmcd
#
# Track frame offsets: 
#        150
#        22608
#        41268
#        59446
#        83547
#        101305
#        118838
#        152359
#        184075
#        203683
#        229222
#        249431
#        273093
#        303985
#
# Disc length: 4578 seconds
#
# Revision: 0
# Processed by: cddbd v1.5.2PL0 Copyright (c) Steve Scherf et al.
# Submitted via: ExactAudioCopy v0.95b3
#
DISCID=9c11e00e
DTITLE=Peter Gabriel  - Mail On Sunday compilation(FLAC)
DYEAR=1900
DGENRE=
TTITLE0=Father. Son
TTITLE1=The Tower That Ate People (remix)
TTITLE2=Of These. Hope
TTITLE3=The Rhythm Of The Heat
TTITLE4=No Self Control
TTITLE5=Don't Break This Rhythm
TTITLE6=I Grieve
TTITLE7=Secret World
TTITLE8=I Have The Touch (Robbie Robertson remix)
TTITLE9=Red Rain
TTITLE10=Solsbury Hill (live)
TTITLE11=Sledgehammer (live)
TTITLE12=Don't Give Up (live)
TTITLE13=In Your Eyes (live)
EXTD=
EXTT0=
EXTT1=
EXTT2=
EXTT3=
EXTT4=
EXTT5=
EXTT6=
EXTT7=
EXTT8=
EXTT9=
EXTT10=
EXTT11=
EXTT12=
EXTT13=
PLAYORDER=
